<?xml version="1.0" standalone="no"?>
<!DOCTYPE svg PUBLIC "-//W3C//DTD SVG 20010904//EN"
 "http://www.w3.org/TR/2001/REC-SVG-20010904/DTD/svg10.dtd">
<svg version="1.0" xmlns="http://www.w3.org/2000/svg"
 width="690.000000pt" height="690.000000pt" viewBox="0 0 690.000000 690.000000"
 preserveAspectRatio="xMidYMid meet">

<g transform="translate(0.000000,690.000000) scale(0.100000,-0.100000)"
fill="#000000" stroke="none">
<path d="M3225 5900 c-143 -16 -235 -32 -235 -42 0 -5 -9 -7 -19 -3 -34 11
-400 -93 -409 -117 -2 -4 -13 -8 -25 -9 -12 0 -65 -19 -117 -43 l-95 -43 2
-54 c1 -48 0 -52 -13 -34 -8 10 -14 26 -14 35 0 9 -3 20 -7 23 -13 13 -249
-131 -355 -216 -332 -267 -545 -527 -713 -872 -133 -274 -217 -559 -241 -817
-6 -71 -5 -78 12 -84 11 -3 33 -12 51 -20 17 -8 33 -14 36 -14 2 0 8 39 12 87
4 48 20 150 37 227 16 78 31 148 32 156 2 8 6 22 10 30 12 30 46 133 46 142 0
4 -7 8 -15 8 -8 0 -15 7 -15 15 0 9 9 15 23 15 19 0 28 11 47 58 113 277 277
526 498 756 70 72 129 132 132 134 3 1 58 42 122 90 153 115 301 202 470 278
117 52 135 63 123 75 -9 9 -11 19 -6 28 7 11 14 10 39 -7 l30 -22 68 24 c360
122 841 142 1234 50 101 -23 307 -87 343 -106 12 -6 19 -5 23 7 9 22 22 18 26
-7 2 -13 10 -24 20 -26 9 -2 67 -30 128 -63 62 -32 116 -57 120 -54 12 8 40
-6 40 -19 0 -7 46 -44 103 -82 127 -86 246 -185 360 -301 102 -104 119 -126
111 -146 -3 -8 -23 -17 -45 -20 -22 -3 -47 -11 -55 -18 -9 -7 -23 -14 -32 -16
-34 -5 -436 -174 -444 -186 -4 -7 -20 -13 -35 -13 -15 -1 -42 -7 -60 -15 -29
-12 -34 -11 -65 14 -126 103 -268 191 -398 247 -108 47 -249 94 -257 86 -4 -3
4 -17 17 -31 13 -14 21 -27 18 -30 -2 -3 -13 4 -23 15 -22 24 -41 26 -49 4 -4
-9 -5 -17 -4 -18 2 -1 50 -17 108 -35 136 -43 283 -114 396 -190 121 -83 140
-99 126 -113 -8 -8 -18 -6 -37 6 -31 21 -44 13 -27 -14 7 -11 8 -20 3 -20 -5
0 -12 -16 -15 -35 -4 -19 -17 -41 -28 -50 -14 -9 -19 -18 -13 -24 12 -10 407
150 413 168 5 14 -14 15 -23 1 -9 -14 -45 -12 -45 3 0 15 68 38 76 25 3 -5 12
-7 19 -4 8 3 15 0 17 -5 3 -9 63 14 513 198 88 36 216 88 285 116 69 27 130
54 135 58 26 19 175 -41 175 -71 0 -6 20 -10 45 -10 53 0 60 -15 10 -24 -32
-6 -34 -8 -24 -34 29 -78 76 -162 96 -171 12 -6 25 -23 29 -38 4 -15 15 -38
26 -49 19 -22 19 -22 -2 -37 l-22 -16 32 -78 c18 -43 38 -91 45 -108 37 -82
125 -309 135 -344 13 -50 0 -108 -34 -148 -29 -34 -68 -53 -256 -128 -80 -32
-167 -68 -195 -80 -27 -12 -102 -43 -165 -68 -85 -34 -114 -49 -112 -61 2 -13
-7 -16 -43 -16 -38 0 -45 -3 -45 -20 0 -22 -25 -28 -34 -7 -3 9 -8 8 -18 -3
-18 -21 -128 -68 -158 -68 -30 1 -250 -91 -250 -104 0 -5 -4 -6 -10 -3 -11 7
-497 -190 -521 -211 -9 -8 -18 -12 -21 -9 -3 3 -121 -42 -262 -100 -141 -58
-261 -105 -265 -105 -5 0 -20 -9 -33 -20 -14 -10 -28 -17 -31 -14 -3 3 -48
-13 -100 -35 -52 -22 -179 -74 -282 -116 -242 -98 -450 -183 -500 -205 -22 -9
-52 -22 -67 -28 -16 -7 -28 -16 -28 -22 0 -6 -4 -9 -10 -5 -12 7 -60 -5 -60
-15 0 -4 18 -10 39 -14 22 -3 46 -13 54 -20 13 -13 24 -11 88 15 41 17 169 69
284 116 116 47 214 92 218 99 5 8 13 12 18 8 13 -7 390 144 405 163 6 7 16 13
23 13 6 0 11 11 11 25 0 30 20 33 27 5 6 -24 8 -24 137 30 50 21 92 44 92 52
1 7 2 17 3 22 0 6 7 2 14 -7 11 -16 23 -13 152 39 77 32 145 61 151 66 6 4 9
20 6 36 -5 30 13 21 20 -10 3 -15 21 -10 131 34 101 41 127 56 127 71 0 16 3
17 15 7 12 -10 27 -7 80 14 36 14 69 26 74 26 8 0 -1 -76 -18 -152 -6 -27 -5
-40 4 -48 14 -12 29 34 41 130 8 66 20 100 34 100 5 0 10 -15 10 -34 0 -30
-29 -184 -46 -243 -4 -15 0 -33 12 -50 11 -16 22 -35 25 -43 5 -11 10 -7 19
15 20 52 60 242 66 318 l7 74 217 89 c184 75 215 90 202 100 -15 11 -13 15 20
28 28 12 43 13 60 5 19 -8 35 -5 81 15 32 15 63 26 69 26 13 0 4 -401 -10
-483 -6 -29 -5 -50 1 -54 16 -10 23 15 35 124 9 81 9 109 0 120 -8 10 -9 17
-1 21 7 4 11 59 12 147 1 98 5 141 14 147 17 10 26 -44 26 -162 1 -95 -14
-300 -25 -352 -4 -21 -2 -28 10 -28 23 0 20 -17 -4 -25 -12 -4 -20 -15 -20
-28 0 -40 -58 -259 -98 -372 -42 -116 -69 -180 -128 -296 -28 -56 -32 -70 -18
-65 10 4 21 2 24 -5 5 -7 22 -9 50 -4 42 7 43 8 85 99 83 178 147 372 185 557
23 113 24 136 8 142 -10 3 -8 10 5 25 14 15 18 34 16 75 -2 33 2 62 10 71 9
11 12 67 10 218 l-2 203 71 31 c39 17 77 36 85 42 8 7 16 9 19 6 8 -8 135 52
174 81 18 14 45 50 60 81 39 79 37 147 -5 253 -33 80 -44 93 -55 69 -3 -7 -4
3 -1 22 4 26 -5 60 -36 135 -23 55 -88 214 -145 354 -57 139 -115 269 -130
288 -51 67 -151 110 -232 99 -24 -3 -109 -33 -189 -66 -81 -33 -151 -60 -157
-60 -6 0 -49 42 -96 93 -47 50 -127 131 -179 179 -80 74 -97 85 -114 77 -22
-12 -38 -2 -18 10 19 12 9 23 -51 65 -29 19 -64 44 -78 55 -14 12 -28 21 -31
21 -3 0 -37 20 -74 45 -65 42 -287 156 -331 169 -15 5 -24 0 -32 -16 -10 -22
-11 -22 -11 8 -1 30 -2 31 -128 72 -165 54 -263 78 -421 102 -146 23 -462 34
-587 20z"/>
<path d="M3270 5754 c-118 -11 -276 -38 -382 -65 -148 -37 -168 -45 -168 -65
0 -11 5 -14 18 -9 47 19 232 65 324 80 56 9 110 19 118 21 8 3 71 8 140 11 70
2 130 9 138 16 9 7 16 7 20 0 4 -5 72 -16 152 -23 80 -7 156 -14 170 -15 14
-2 32 -5 40 -8 36 -14 128 -27 143 -21 9 3 17 1 17 -5 0 -5 19 -15 43 -22 334
-89 637 -252 920 -493 41 -35 61 -46 68 -39 8 8 -12 30 -68 78 -83 72 -235
183 -262 192 -9 3 -25 14 -36 24 -11 10 -77 48 -147 84 -88 46 -134 64 -148
60 -14 -4 -20 -2 -20 8 0 8 -8 17 -17 20 -10 3 -56 19 -103 37 -95 35 -285 88
-339 95 -20 3 -74 12 -121 20 -84 15 -412 27 -500 19z"/>
<path d="M3191 5655 c-50 -16 -102 -61 -94 -81 3 -8 1 -14 -5 -14 -5 0 -13
-16 -16 -35 -8 -42 11 -80 31 -63 10 8 18 6 33 -7 10 -9 23 -14 29 -11 5 4 12
2 16 -4 3 -5 13 -10 21 -10 11 0 14 14 14 60 0 48 4 61 19 70 62 33 89 -4 102
-136 5 -53 11 -99 14 -102 2 -3 11 1 19 7 17 14 36 7 36 -14 0 -7 -12 -15 -27
-17 -21 -2 -29 -9 -31 -28 -5 -32 -30 -60 -54 -60 -39 0 -57 19 -63 68 -10 76
-15 92 -28 92 -7 0 -18 9 -24 19 -12 19 -14 19 -58 -6 l-46 -25 6 -57 c9 -74
42 -141 82 -164 105 -60 275 -13 312 86 18 46 14 157 -6 179 -9 11 -11 18 -5
18 17 0 14 71 -3 94 -8 11 -15 32 -15 47 0 38 -44 86 -88 99 -50 13 -118 12
-171 -5z"/>
<path d="M3667 5653 c-2 -4 -13 -52 -22 -107 -17 -91 -17 -99 -1 -108 22 -12
20 -28 -3 -28 -25 0 -32 -20 -38 -117 -9 -129 17 -168 133 -198 74 -19 118
-19 138 1 9 8 20 12 26 9 5 -3 14 4 19 17 5 13 18 30 29 39 14 12 27 60 55
206 21 105 37 198 37 207 0 18 -25 26 -89 29 l-45 2 -37 -195 c-34 -173 -41
-198 -64 -217 -25 -22 -66 -32 -64 -15 1 4 0 12 -1 17 -5 23 2 86 22 199 19
109 20 119 4 128 -22 12 -20 31 3 23 22 -7 35 26 17 45 -8 9 -8 14 2 17 27 10
10 31 -30 37 -24 4 -53 9 -64 12 -12 3 -24 2 -27 -3z"/>
<path d="M2570 5585 c-149 -59 -235 -104 -222 -117 6 -6 16 -6 28 0 25 14 216
96 277 120 37 14 45 21 35 29 -9 8 -41 -1 -118 -32z"/>
<path d="M4191 5521 c-35 -64 -34 -69 19 -96 28 -14 50 -27 50 -29 0 -2 -27
-63 -60 -135 -70 -155 -73 -174 -28 -187 18 -6 34 -17 36 -27 3 -15 1 -15 -25
-2 -43 23 -72 19 -85 -11 -14 -31 3 -47 40 -39 28 7 62 -11 62 -32 0 -34 22 6
105 187 46 100 86 184 87 186 2 2 27 -8 56 -21 l52 -24 20 39 c11 22 20 43 20
48 0 5 -48 30 -107 57 -60 26 -126 56 -148 66 -25 11 -44 14 -49 8 -15 -14
-29 -11 -23 6 9 23 -11 28 -22 6z"/>
<path d="M2515 5450 c-3 -5 1 -10 9 -10 8 0 18 5 21 10 3 6 -1 10 -9 10 -8 0
-18 -4 -21 -10z"/>
<path d="M2574 5435 c-5 -12 -19 -14 -66 -10 -42 3 -68 0 -89 -10 -25 -13 -28
-19 -22 -48 l6 -32 -25 23 -26 23 -41 -21 -41 -21 115 -229 c64 -126 120 -232
125 -235 10 -6 176 74 222 107 15 10 25 24 23 31 -2 7 -6 28 -9 47 -5 27 -4
32 6 22 7 -7 21 -12 31 -12 32 0 16 76 -36 183 -42 85 -46 89 -46 57 -2 -51
-21 -17 -21 38 0 31 -4 42 -15 42 -8 0 -15 6 -15 14 0 17 -37 46 -58 46 -7 0
-15 -7 -18 -15z m-20 -127 c37 -49 106 -198 106 -229 0 -28 -31 -59 -57 -59
-7 0 -46 66 -86 146 -70 140 -71 146 -53 160 32 23 63 17 90 -18z"/>
<path d="M2165 5374 c-137 -91 -265 -195 -265 -216 0 -10 2 -18 4 -18 2 0 37
28 78 63 76 63 159 121 278 196 61 38 63 41 35 41 -21 0 -62 -21 -130 -66z"/>
<path d="M3098 5423 c-10 -2 -18 -10 -18 -18 0 -16 34 -9 51 11 12 15 3 17
-33 7z"/>
<path d="M1770 5043 c-143 -147 -238 -272 -343 -455 -65 -112 -157 -315 -157
-346 0 -11 -4 -22 -9 -24 -25 -9 -100 -305 -125 -498 -13 -95 -13 -116 -2
-132 12 -17 15 -13 21 44 58 540 270 1007 630 1386 57 60 95 108 93 118 -2 11
-36 -18 -108 -93z"/>
<path d="M1945 5086 c-44 -38 -48 -45 -36 -60 11 -13 16 -14 23 -4 11 17 48
-25 48 -56 0 -12 14 -38 31 -59 l31 -38 24 22 c32 30 44 16 14 -16 l-23 -24
53 -61 c55 -63 64 -69 74 -45 3 8 16 15 28 15 22 -1 22 -2 -7 -25 l-29 -24 21
-21 c12 -11 26 -28 32 -37 8 -15 16 -12 68 33 32 27 84 72 116 99 31 27 57 54
57 60 0 6 -11 21 -23 34 -22 19 -25 20 -37 6 -7 -9 -20 -13 -28 -10 -9 3 -32
-7 -53 -25 -21 -16 -42 -30 -47 -30 -9 0 -96 97 -226 253 -27 31 -51 57 -55
57 -4 0 -29 -20 -56 -44z"/>
<path d="M5043 5102 c-16 -10 133 -164 155 -160 13 3 -4 26 -63 86 -49 51 -84
79 -92 74z"/>
<path d="M3230 5060 c-111 -18 -237 -49 -330 -82 -77 -28 -96 -38 -98 -56 -3
-19 -6 -20 -23 -9 -17 10 -32 6 -102 -32 -120 -63 -201 -122 -205 -149 -3 -18
-8 -21 -23 -17 -15 5 -43 -15 -121 -87 -118 -109 -215 -225 -287 -346 -54 -90
-61 -112 -36 -112 8 0 15 -5 15 -11 0 -7 -10 -9 -24 -7 -22 4 -28 -2 -54 -61
-40 -89 -94 -261 -88 -278 6 -14 69 -12 72 3 10 38 55 176 68 207 15 34 15 37
0 37 -12 0 -4 13 25 45 22 24 41 53 41 64 0 11 4 23 10 26 13 8 100 143 100
155 0 6 4 10 8 10 5 0 23 19 39 43 69 94 217 234 331 311 40 27 72 54 72 58 0
5 5 6 10 3 6 -3 13 1 16 9 3 9 10 14 14 11 4 -2 34 10 66 28 33 17 82 40 109
50 28 10 71 27 97 36 26 10 56 25 66 34 10 9 27 14 39 11 11 -3 67 4 124 17
130 28 404 31 534 7 44 -9 84 -13 88 -8 4 4 9 20 10 36 2 28 -1 29 -58 42 -73
16 -428 24 -505 12z"/>
<path d="M5680 4987 c-58 -26 -118 -50 -345 -142 -132 -54 -258 -106 -280
-115 -22 -10 -78 -33 -125 -51 -47 -17 -91 -39 -98 -48 -7 -9 -21 -15 -32 -13
-10 2 -38 -6 -62 -17 -23 -10 -113 -47 -198 -81 -178 -72 -184 -74 -212 -102
-20 -20 -20 -21 -2 -16 10 3 327 131 704 286 377 154 704 283 728 287 23 4 42
11 42 16 0 13 -90 10 -120 -4z"/>
<path d="M5810 4980 c0 -5 5 -10 11 -10 5 0 7 5 4 10 -3 6 -8 10 -11 10 -2 0
-4 -4 -4 -10z"/>
<path d="M3242 4947 c-143 -16 -320 -72 -298 -95 7 -7 79 19 98 35 10 9 18 10
22 4 4 -6 18 -6 39 0 17 5 72 16 121 24 49 8 91 17 93 19 16 16 -11 20 -75 13z"/>
<path d="M3340 4945 c0 -13 17 -15 123 -13 160 4 158 22 -3 26 -103 2 -120 0
-120 -13z"/>
<path d="M3605 4938 c4 -9 38 -20 98 -30 51 -8 129 -26 175 -40 82 -25 103
-22 58 7 -29 19 -193 61 -275 71 -51 5 -60 4 -56 -8z"/>
<path d="M5850 4900 c11 -21 29 -64 41 -95 11 -30 24 -55 29 -55 5 0 12 -17
16 -37 4 -20 65 -178 135 -351 76 -184 129 -328 129 -348 0 -46 -41 -83 -131
-118 -41 -15 -101 -41 -134 -56 -33 -15 -69 -30 -80 -33 -21 -6 -281 -111
-350 -142 -22 -10 -43 -19 -46 -19 -33 -5 -399 -164 -399 -173 0 -7 5 -13 11
-13 17 0 264 103 267 112 2 4 10 8 18 8 13 0 289 109 444 175 30 13 111 46
180 74 69 27 144 59 167 70 45 23 74 56 67 76 -3 7 -1 16 5 20 25 15 -2 110
-73 260 -8 17 -19 44 -24 60 -30 88 -194 473 -211 496 -12 16 -21 39 -21 53 0
38 -21 76 -42 76 -18 0 -18 -2 2 -40z"/>
<path d="M2855 4844 c-69 -30 -80 -38 -71 -53 8 -12 116 42 129 65 10 17 14
18 -58 -12z"/>
<path d="M3987 4846 c4 -8 58 -39 118 -70 61 -30 137 -73 170 -95 66 -44 75
-48 75 -27 0 19 -142 109 -257 163 -99 46 -119 51 -106 29z"/>
<path d="M1728 4837 c-74 -34 -148 -144 -148 -220 0 -42 27 -97 47 -97 7 0 13
-6 13 -13 0 -16 122 -109 195 -149 90 -50 168 -32 236 55 45 56 46 63 19 97
-11 14 -20 31 -20 38 0 21 20 13 32 -13 17 -37 28 -30 28 15 0 50 -17 84 -63
128 -31 30 -36 32 -44 17 -9 -15 -11 -15 -23 0 -11 13 -11 18 -1 24 9 6 -2 19
-36 44 -103 75 -180 99 -235 74z m60 -116 c-2 -5 33 -34 77 -66 141 -100 169
-140 129 -179 -16 -17 -84 -22 -84 -8 0 5 -26 26 -57 47 -148 100 -187 151
-141 184 34 24 80 38 76 22z"/>
<path d="M5411 4720 c-145 -60 -266 -112 -269 -115 -4 -3 4 -25 16 -48 12 -23
22 -49 22 -58 0 -8 6 -23 13 -33 13 -17 17 -16 91 14 42 18 78 31 80 29 2 -2
11 -19 20 -36 10 -21 24 -33 36 -33 11 0 20 -7 20 -15 0 -8 -7 -15 -15 -15 -8
0 -15 -1 -15 -3 0 -1 25 -62 55 -136 30 -74 55 -136 55 -138 0 -1 6 -3 14 -3
9 0 12 -7 9 -19 -4 -17 71 -219 97 -261 8 -13 16 -12 57 10 32 17 49 32 51 48
4 24 -7 29 -26 10 -6 -6 -14 -9 -17 -6 -7 6 4 17 64 66 l40 34 -20 51 c-11 28
-29 70 -40 93 -10 24 -19 46 -19 49 0 15 -95 231 -104 237 -6 4 -8 10 -4 13 3
4 -5 31 -18 61 -13 30 -24 61 -24 69 0 8 17 22 37 30 21 9 45 24 55 35 9 10
27 25 39 34 l22 15 -27 66 c-16 36 -29 65 -30 65 0 -1 -120 -50 -265 -110z"/>
<path d="M2697 4767 c-52 -29 -71 -47 -48 -47 18 0 121 50 121 59 0 21 -18 18
-73 -12z"/>
<path d="M2560 4680 c-60 -43 -71 -58 -43 -56 28 2 71 35 87 67 8 16 14 29 13
29 -1 0 -27 -19 -57 -40z"/>
<path d="M3382 4675 c-19 -39 -26 -45 -62 -51 -22 -4 -43 -10 -45 -14 -3 -4
11 -20 30 -34 33 -25 34 -28 28 -78 l-6 -51 41 23 c40 23 43 23 83 7 24 -9 45
-15 47 -12 3 2 0 22 -5 43 -9 35 -7 41 19 72 15 19 28 38 28 42 0 4 -20 8 -45
8 -25 0 -45 3 -45 8 0 4 -10 24 -23 45 l-23 37 -22 -45z"/>
<path d="M6016 4667 c3 -10 9 -15 12 -12 3 3 0 11 -7 18 -10 9 -11 8 -5 -6z"/>
<path d="M2936 4623 c-3 -21 -6 -50 -6 -65 0 -18 -7 -29 -20 -33 -22 -7 -26
-20 -10 -30 6 -3 10 -10 10 -16 0 -13 -38 -11 -42 3 -4 12 -38 4 -38 -9 0 -5
14 -14 32 -21 29 -11 34 -9 72 24 67 57 103 80 113 70 8 -8 -17 -36 -31 -36
-6 0 -27 -16 -45 -35 -29 -31 -32 -40 -27 -73 4 -20 12 -50 18 -65 l11 -28 29
35 c30 37 84 70 93 56 7 -11 75 -18 75 -8 0 4 -13 29 -29 55 -29 45 -29 48
-14 83 26 61 33 80 28 80 -2 0 -30 -7 -61 -15 -57 -15 -59 -14 -83 8 -71 63
-68 62 -75 20z"/>
<path d="M3731 4606 c-18 -19 -30 -24 -52 -19 -33 6 -36 -3 -14 -35 12 -16 13
-27 5 -41 -18 -34 -13 -43 21 -36 24 5 36 2 55 -16 l24 -22 0 27 c0 16 10 37
27 52 14 13 24 26 22 28 -2 2 -13 8 -24 14 -10 5 -24 24 -30 42 l-10 31 -24
-25z"/>
<path d="M2451 4597 c-70 -62 -192 -194 -205 -222 -9 -19 -21 -35 -27 -35 -10
0 -111 -151 -105 -157 12 -12 43 20 93 95 32 48 106 137 166 198 96 100 122
135 100 134 -5 -1 -14 -6 -22 -13z"/>
<path d="M4948 4531 c-48 -21 -90 -40 -94 -43 -11 -11 136 -362 161 -384 14
-13 20 -25 14 -31 -6 -6 6 -50 31 -115 46 -123 51 -169 18 -192 -51 -36 -104
-7 -138 73 -10 25 -15 29 -27 20 -20 -17 -28 -3 -14 25 15 27 7 48 -14 39 -17
-6 -20 8 -4 24 7 7 -5 49 -44 144 -49 120 -58 134 -81 137 -20 3 -26 9 -26 29
0 19 4 24 16 19 11 -4 15 -2 11 6 -3 7 -17 43 -32 79 l-26 67 -100 -41 c-54
-23 -99 -46 -99 -52 0 -14 213 -532 245 -595 27 -53 49 -64 60 -30 4 11 17 27
30 36 13 8 28 29 34 46 6 17 14 28 17 25 13 -12 -7 -57 -41 -94 -19 -21 -38
-46 -41 -56 -6 -20 12 -47 32 -47 8 0 14 -5 14 -10 0 -6 16 -18 36 -27 28 -14
39 -15 55 -5 16 10 19 10 19 -3 0 -20 9 -19 102 6 94 25 187 83 222 136 45 70
44 177 -4 275 -11 23 -20 46 -20 50 0 5 -43 113 -95 241 -116 282 -119 287
-125 286 -3 -1 -44 -18 -92 -38z"/>
<path d="M4270 4544 c-19 -8 -37 -20 -41 -26 -4 -6 -18 -12 -33 -13 -14 -2
-106 -36 -206 -76 l-180 -72 0 -48 c0 -46 1 -48 23 -39 12 6 30 13 40 16 9 4
17 10 17 15 0 5 10 9 23 9 21 0 352 132 365 145 3 3 -5 15 -17 26 -17 16 -20
24 -11 33 8 8 15 6 26 -9 15 -20 16 -19 40 10 13 17 24 33 24 38 0 11 -32 8
-70 -9z"/>
<path d="M4250 4400 c-8 -4 -42 -18 -75 -31 -33 -12 -80 -31 -105 -42 -25 -11
-51 -21 -59 -23 -24 -5 -36 -23 -19 -29 20 -8 265 93 273 113 7 19 4 22 -15
12z"/>
<path d="M2696 4368 c-28 -21 -30 -21 -75 -5 -25 9 -47 15 -48 13 -2 -2 1 -15
7 -30 14 -39 12 -67 -7 -88 -9 -11 -11 -18 -5 -18 7 0 12 -9 12 -20 0 -15 7
-20 28 -20 21 0 33 -10 53 -41 l27 -41 12 38 c17 54 27 63 71 70 22 4 39 9 39
13 0 3 -16 19 -35 34 -31 24 -35 33 -35 72 0 25 -3 45 -7 45 -5 0 -21 -10 -37
-22z"/>
<path d="M1431 4358 c-43 -29 -81 -103 -88 -171 -4 -43 -1 -58 19 -86 50 -73
139 -91 214 -44 38 24 42 31 38 58 -5 29 -5 29 8 8 l14 -23 37 27 c61 43 116
32 117 -23 0 -33 -25 -47 -71 -41 -32 4 -41 2 -45 -11 -3 -10 -10 -26 -16 -36
-7 -14 -7 -21 3 -27 8 -4 29 -19 48 -33 19 -14 43 -26 52 -26 46 0 138 127
124 171 -4 11 -2 19 4 19 17 0 13 40 -8 86 -22 49 -75 85 -136 91 -49 6 -101
-20 -170 -83 -43 -39 -96 -54 -120 -34 -38 31 -2 85 50 76 31 -6 33 -5 53 51
12 31 19 59 17 62 -3 2 -29 6 -58 9 -42 3 -58 0 -86 -20z"/>
<path d="M3646 4289 c-65 -27 -137 -57 -160 -67 -23 -10 -86 -36 -140 -58
-110 -42 -126 -54 -126 -90 0 -13 -4 -24 -10 -24 -5 0 -10 11 -10 25 0 14 -5
25 -10 25 -19 0 -70 -30 -70 -41 0 -6 -7 -8 -16 -5 -13 5 -224 -72 -281 -103
-10 -5 -72 -31 -138 -56 -66 -26 -123 -52 -127 -58 -4 -7 -8 -22 -8 -35 0 -15
-5 -22 -12 -19 -7 2 -12 14 -10 27 1 14 -2 20 -10 17 -120 -47 -148 -61 -148
-74 0 -10 -6 -12 -19 -8 -23 7 -196 -60 -223 -87 -9 -9 -23 -15 -31 -13 -7 3
-39 -5 -72 -19 -33 -13 -63 -22 -66 -20 -3 2 -3 24 1 49 4 25 3 48 -2 51 -5 3
-3 13 4 22 8 10 27 62 42 117 16 55 38 123 51 150 12 28 20 55 18 62 -2 6 5
21 17 33 12 12 19 25 15 28 -13 13 -54 -48 -85 -130 -33 -84 -83 -275 -95
-360 -4 -29 -12 -49 -22 -52 -14 -6 -15 2 -8 66 14 128 13 133 -16 136 -14 2
-31 -3 -37 -10 -6 -7 -17 -63 -24 -123 l-14 -110 -164 -67 c-91 -38 -170 -75
-176 -83 -6 -8 -16 -15 -22 -15 -24 0 -20 -18 9 -39 l30 -23 106 43 c57 23
107 48 110 55 2 7 10 11 17 8 12 -5 126 40 556 216 96 39 199 81 228 92 35 14
59 31 70 50 15 26 18 27 22 10 5 -18 42 -5 425 152 296 122 421 177 423 189 4
18 32 24 32 8 0 -6 64 16 143 48 78 32 150 61 161 64 15 6 16 10 6 23 -10 11
-10 18 -2 26 16 16 15 48 0 47 -7 0 -67 -23 -132 -50z"/>
<path d="M3910 4263 c-8 -3 -37 -16 -65 -28 -27 -12 -52 -22 -55 -22 -3 0 -16
-5 -29 -12 -15 -8 -20 -16 -14 -22 12 -12 205 62 211 80 4 11 -22 14 -48 4z"/>
<path d="M2545 4220 c-3 -5 -1 -10 4 -10 6 0 11 5 11 10 0 6 -2 10 -4 10 -3 0
-8 -4 -11 -10z"/>
<path d="M4098 4204 c-31 -9 -48 -20 -48 -30 0 -11 -6 -14 -16 -10 -21 8 -62
-15 -106 -61 -93 -96 -91 -198 6 -440 52 -129 109 -246 144 -291 27 -35 98
-82 125 -82 12 0 17 9 17 30 0 17 7 45 16 61 15 30 15 31 -5 24 -27 -8 -27 11
-1 27 26 17 25 49 -2 84 -13 15 -22 36 -20 45 2 9 -21 77 -51 151 -72 175 -91
239 -83 272 12 49 106 75 139 38 20 -22 91 -174 142 -304 24 -61 44 -98 53
-98 10 0 12 -6 7 -17 -4 -10 -7 -34 -6 -54 1 -30 -4 -42 -29 -63 -18 -14 -36
-26 -41 -26 -5 0 -9 -5 -9 -12 0 -6 -17 -32 -39 -58 -21 -25 -42 -61 -46 -79
l-7 -34 58 6 c118 11 229 70 288 155 25 35 31 55 34 112 5 80 -14 151 -84 322
-81 201 -127 274 -197 317 -38 23 -114 40 -103 22 4 -6 3 -11 -3 -11 -5 0 -17
-3 -27 -7 -13 -5 -16 -3 -11 10 8 22 -28 22 -95 1z"/>
<path d="M3593 4133 c-80 -33 -133 -61 -133 -69 0 -8 3 -14 6 -14 6 0 78 30
222 91 24 10 42 25 42 33 0 9 -1 16 -2 15 -2 0 -63 -25 -135 -56z"/>
<path d="M2096 4153 c-6 -14 -5 -15 5 -6 7 7 10 15 7 18 -3 3 -9 -2 -12 -12z"/>
<path d="M2465 4090 c-11 -12 -31 -20 -52 -20 l-33 0 17 -26 c14 -22 15 -31 5
-57 -6 -17 -10 -33 -7 -35 2 -2 19 5 38 17 39 24 55 27 38 7 -9 -10 -8 -16 3
-26 18 -14 36 -5 36 19 0 10 12 26 26 36 l26 17 -31 19 c-21 13 -31 26 -31 44
0 30 -11 32 -35 5z"/>
<path d="M3219 3981 c-103 -42 -194 -85 -204 -94 -9 -10 -21 -14 -27 -11 -11
7 -335 -122 -357 -142 -31 -29 3 -26 82 6 45 18 91 38 102 45 11 6 31 15 45
18 14 4 144 56 290 116 176 72 266 114 268 125 2 9 0 16 -5 15 -4 0 -92 -35
-194 -78z"/>
<path d="M5794 3953 c-23 -32 -36 -63 -27 -63 19 0 73 26 73 35 0 20 -12 55
-19 55 -4 0 -16 -12 -27 -27z"/>
<path d="M3148 3785 c-59 -15 -327 -120 -342 -135 -8 -8 227 -607 244 -620 3
-3 11 -23 18 -46 7 -23 25 -71 42 -107 l29 -65 93 37 c94 39 101 45 114 96 l8
30 4 -32 c2 -18 8 -33 13 -33 12 0 127 57 146 73 36 29 69 71 80 100 15 40 17
100 3 92 -6 -4 -8 -11 -5 -16 12 -18 -7 -8 -25 14 -10 12 -22 18 -26 14 -5 -4
-2 -12 6 -17 13 -8 13 -11 -2 -26 -26 -26 -41 -8 -33 40 4 22 8 55 9 71 1 17
6 38 10 48 19 41 0 131 -54 250 -29 66 -62 124 -72 130 -10 7 -18 17 -18 23 0
19 -55 63 -99 79 -51 18 -68 18 -143 0z m60 -198 c19 -16 54 -86 111 -228 66
-165 78 -210 63 -243 -12 -26 -66 -66 -89 -66 -7 0 -26 28 -43 63 l-30 62 6
-49 c4 -37 3 -47 -8 -44 -9 4 -13 26 -13 74 0 38 -4 78 -9 89 -54 124 -126
320 -122 331 12 30 102 38 134 11z"/>
<path d="M2286 3599 c-159 -65 -291 -121 -293 -123 -2 -2 15 -2 39 -1 25 2
122 36 228 80 102 42 221 91 264 109 76 31 108 57 69 55 -10 0 -148 -54 -307
-120z"/>
<path d="M975 3590 c-4 -6 -5 -97 -4 -202 l3 -191 -158 -66 c-175 -73 -222
-106 -256 -178 -38 -82 -32 -145 30 -300 l53 -131 36 23 c20 13 35 29 33 37
-1 7 -23 64 -48 127 -40 98 -45 120 -39 158 7 51 68 127 110 137 14 4 25 11
25 16 0 6 6 10 13 10 7 0 29 9 49 19 19 11 38 17 42 14 10 -10 316 120 316
134 0 7 -7 13 -15 13 -12 0 -15 20 -16 113 -1 61 -1 140 1 175 2 51 -1 62 -14
62 -14 0 -16 -19 -16 -155 0 -125 -3 -155 -14 -155 -18 0 -28 77 -27 211 l1
107 -40 16 c-47 19 -57 20 -65 6z"/>
<path d="M2425 3498 c-11 -6 -21 -12 -23 -14 -5 -4 33 -40 62 -59 14 -10 26
-15 26 -12 0 8 -39 97 -42 97 -2 0 -12 -6 -23 -12z"/>
<path d="M4270 3465 c0 -16 30 -29 41 -18 4 4 -3 13 -17 20 -19 9 -24 8 -24
-2z"/>
<path d="M2300 3449 c-24 -11 -46 -22 -48 -24 -2 -1 11 -37 28 -79 24 -57 37
-76 51 -76 22 0 26 -17 5 -22 -11 -2 1 -41 51 -163 36 -88 68 -162 72 -165 3
-3 8 -14 9 -25 6 -34 42 -109 64 -132 17 -18 24 -20 41 -11 16 8 23 7 32 -6 7
-9 17 -16 22 -16 17 0 22 -38 7 -51 -11 -9 -18 -9 -26 -1 -11 11 -58 17 -58 8
0 -9 39 -96 43 -96 3 0 22 7 43 16 22 9 50 21 64 26 l25 10 -29 23 c-16 12
-25 28 -22 34 17 27 81 -3 70 -33 -6 -15 -2 -15 42 2 140 55 240 96 247 102 7
6 -4 37 -44 128 -19 42 -20 42 -47 28 -38 -19 -214 -88 -217 -84 -1 2 -26 62
-55 133 -29 72 -59 135 -66 141 -8 6 -14 21 -14 32 0 24 -53 161 -66 171 -5 3
-9 12 -9 20 0 8 -8 15 -17 17 -10 1 -25 9 -34 18 -8 9 -21 16 -27 16 -7 0 -23
18 -37 40 -28 45 -37 47 -100 19z"/>
<path d="M5012 3450 c-14 -23 -10 -25 19 -9 11 5 17 14 14 20 -9 14 -19 11
-33 -11z"/>
<path d="M1751 3380 c-106 -44 -195 -81 -197 -82 -1 -2 1 -10 5 -17 7 -11 14
-11 37 2 16 8 107 46 201 84 154 61 188 80 157 90 -5 1 -96 -33 -203 -77z"/>
<path d="M4840 3395 c-47 -20 -367 -151 -712 -292 -379 -155 -628 -262 -628
-270 0 -18 10 -16 67 8 26 11 127 53 223 91 96 39 186 78 200 87 13 9 25 15
27 14 4 -4 19 2 243 93 113 45 252 101 310 125 58 23 118 54 134 68 18 16 30
22 33 14 3 -8 19 -5 56 9 29 12 56 25 62 30 5 4 16 8 25 8 8 0 23 12 33 25 10
14 17 25 15 25 -2 0 -41 -16 -88 -35z"/>
<path d="M1285 3324 c-33 -14 -71 -29 -84 -35 -22 -9 -22 -11 -8 -27 10 -11
14 -27 10 -40 -3 -12 -1 -22 4 -22 19 0 220 86 223 95 4 11 -56 55 -74 55 -6
-1 -38 -12 -71 -26z"/>
<path d="M3570 3320 c0 -3 -2 -29 -3 -57 -2 -45 0 -53 15 -53 12 0 18 7 17 23
0 21 -26 98 -29 87z"/>
<path d="M1901 3299 c-63 -12 -163 -62 -197 -97 -110 -115 -117 -188 -39 -395
36 -95 55 -127 55 -90 0 11 7 26 15 33 8 7 15 18 15 24 0 16 47 72 54 65 4 -4
0 -19 -8 -35 -9 -16 -28 -58 -42 -92 l-28 -64 42 -83 c67 -136 129 -190 231
-202 90 -10 238 44 305 113 74 76 90 156 57 279 -23 83 -37 109 -53 99 -5 -3
-15 0 -23 6 -8 7 -21 10 -29 7 -17 -7 -40 18 -31 33 8 13 52 13 60 0 13 -21
27 -9 20 18 -11 46 -123 272 -134 272 -6 0 -11 6 -11 13 0 19 -37 51 -85 75
-49 25 -116 33 -174 21z m61 -191 c26 -22 72 -117 137 -281 83 -211 83 -254 0
-278 -53 -16 -80 3 -120 88 -18 38 -36 70 -41 71 -4 2 -8 12 -8 21 0 29 -55
156 -68 157 -22 3 -23 4 -14 21 11 18 -13 102 -32 116 -8 6 -7 10 2 14 6 2 12
13 12 23 0 44 94 78 132 48z"/>
<path d="M1497 3273 c-4 -4 -14 -8 -23 -9 -8 -1 -63 -22 -122 -47 -59 -24
-128 -53 -154 -63 -44 -17 -66 -44 -35 -44 24 1 359 145 359 155 -1 12 -16 18
-25 8z"/>
<path d="M915 3039 c-226 -94 -249 -112 -250 -191 0 -40 4 -53 15 -53 11 0 14
10 12 42 -6 74 25 93 331 214 63 24 107 47 107 55 0 8 -6 14 -12 13 -7 0 -98
-36 -203 -80z"/>
<path d="M1167 3006 c-67 -28 -117 -64 -148 -107 -18 -26 -20 -35 -10 -56 13
-29 6 -47 -16 -38 -25 9 -11 -103 19 -157 23 -42 25 -43 73 -43 28 -1 59 -6
70 -13 18 -10 17 -12 -15 -13 -19 -2 -43 -3 -52 -2 -10 0 -18 -4 -18 -8 0 -19
66 -51 141 -71 75 -18 84 -19 94 -4 11 14 14 14 31 -4 10 -10 44 -26 74 -35
64 -19 90 -52 90 -116 0 -35 -4 -41 -35 -56 -52 -25 -83 -10 -118 55 -16 28
-33 52 -38 52 -12 0 -161 -60 -171 -69 -9 -8 32 -98 64 -141 28 -38 89 -75
139 -84 46 -8 129 8 194 38 94 43 154 112 170 198 9 48 -12 148 -31 148 -8 0
-14 -10 -14 -25 0 -30 -20 -33 -37 -6 -10 16 -8 22 12 35 32 21 31 41 -1 88
-37 53 -107 83 -249 109 -163 29 -205 52 -205 114 0 89 103 97 146 12 9 -17
18 -33 19 -35 2 -3 167 66 173 73 2 2 -1 20 -8 39 -15 47 -76 111 -122 131
-56 23 -152 19 -221 -9z"/>
<path d="M4865 2948 c-16 -46 -45 -118 -66 -160 -22 -43 -39 -79 -39 -82 0 -2
8 -2 18 1 23 5 68 93 49 93 -8 1 -6 5 4 13 21 16 31 37 62 124 22 59 24 73 12
83 -10 9 -18 -5 -40 -72z"/>
<path d="M5688 2938 c-38 -183 -122 -408 -219 -589 -28 -52 -51 -100 -52 -108
0 -7 -11 -25 -25 -40 -13 -14 -53 -66 -88 -115 -57 -81 -68 -106 -45 -106 11
0 111 141 111 157 0 7 4 13 9 13 16 0 82 114 77 133 -3 11 4 23 16 30 40 24
150 273 206 467 55 191 63 240 39 240 -8 0 -19 -31 -29 -82z"/>
<path d="M5062 2875 c-23 -58 -42 -113 -42 -121 0 -14 -3 -23 -34 -81 -21 -40
-20 -42 7 -52 67 -25 66 -26 88 26 11 26 22 49 23 51 2 1 90 -31 195 -73 106
-41 196 -75 199 -75 9 0 56 120 50 126 -3 2 -90 37 -194 78 -104 41 -190 79
-192 84 -2 6 4 27 12 47 26 62 24 66 -50 89 -18 6 -25 -5 -62 -99z"/>
<path d="M4898 2852 c-92 -238 -277 -487 -485 -652 -29 -23 -53 -49 -53 -57 0
-9 -6 -13 -15 -9 -9 3 -39 -9 -68 -28 -28 -18 -72 -43 -97 -56 -57 -28 -54
-24 -38 -49 22 -36 66 -27 164 35 49 30 114 74 144 97 89 66 250 234 328 344
84 117 176 287 168 308 -3 8 -1 15 4 15 5 0 16 16 24 35 14 32 13 37 -7 75
-12 22 -24 40 -27 40 -3 0 -22 -44 -42 -98z"/>
<path d="M4380 2910 c0 -20 -7 -38 -17 -46 -17 -13 -17 -13 3 -14 16 0 20 -7
20 -33 0 -17 3 -41 8 -52 7 -19 8 -19 26 5 14 19 26 24 55 22 l37 -3 -18 29
c-14 24 -15 35 -6 62 12 32 11 32 -16 25 -15 -3 -35 -14 -44 -22 -17 -15 -18
-14 -18 9 0 14 -7 31 -15 38 -13 11 -15 8 -15 -20z"/>
<path d="M3328 2777 c-64 -26 -98 -46 -98 -56 0 -10 -3 -12 -11 -4 -7 7 -61
-11 -182 -59 -180 -73 -200 -84 -176 -93 14 -5 125 37 454 173 75 31 121 56
123 66 4 21 3 21 -110 -27z"/>
<path d="M687 2763 c-2 -5 15 -54 37 -110 30 -74 45 -100 54 -94 10 6 6 25
-16 82 -52 128 -62 145 -75 122z"/>
<path d="M4185 2696 c-16 -42 -22 -48 -61 -57 -24 -6 -44 -15 -44 -19 0 -4 16
-18 36 -31 33 -23 35 -27 32 -72 -2 -26 -2 -47 0 -47 2 0 21 10 43 23 l41 22
-6 63 c-3 34 -1 62 3 62 12 0 21 -26 21 -63 0 -35 25 -68 46 -60 9 3 11 14 7
34 -4 22 1 37 20 63 15 18 23 36 20 40 -4 3 -25 6 -47 6 -37 0 -44 4 -67 41
l-26 41 -18 -46z"/>
<path d="M4680 2582 c-114 -179 -358 -392 -566 -493 -38 -18 -70 -37 -72 -41
-2 -5 -12 -8 -22 -8 -26 0 -90 -29 -90 -40 0 -6 6 -10 13 -10 21 0 107 34 107
42 0 4 8 8 19 8 10 0 30 9 45 21 14 11 26 18 26 15 0 -11 83 35 175 98 53 35
140 111 210 181 155 154 269 319 217 314 -4 0 -32 -39 -62 -87z"/>
<path d="M4916 2553 c-20 -26 -36 -53 -36 -60 0 -6 64 -56 143 -111 147 -104
197 -144 197 -160 0 -6 -8 -20 -18 -32 -14 -17 -25 -21 -44 -17 -14 4 -96 56
-182 117 -86 61 -161 108 -165 105 -5 -3 -25 -27 -45 -55 l-36 -49 33 -24
c256 -187 308 -219 367 -225 63 -6 104 19 155 92 29 42 36 62 33 85 -3 22 0
31 9 31 11 0 11 5 3 20 -6 11 -9 24 -6 29 9 14 -29 56 -93 105 -78 58 -101 71
-101 53 0 -7 7 -22 15 -33 18 -24 19 -34 1 -34 -17 0 -26 22 -26 63 0 32 -20
51 -141 130 l-28 18 -35 -48z"/>
<path d="M2746 2539 c-81 -34 -77 -31 -67 -47 6 -10 22 -7 72 14 75 32 87 41
74 53 -6 5 -39 -4 -79 -20z"/>
<path d="M3881 2519 l-33 -41 28 4 c32 3 66 50 49 67 -7 7 -22 -4 -44 -30z"/>
<path d="M684 2524 l-32 -25 53 -127 c29 -70 87 -212 130 -317 43 -104 91
-207 107 -227 38 -49 118 -88 179 -88 56 0 67 12 39 40 -11 11 -18 25 -15 29
2 5 -16 14 -41 20 -86 22 -101 45 -237 381 -68 168 -127 313 -130 323 -8 22
-16 21 -53 -9z"/>
<path d="M780 2530 c0 -19 240 -604 254 -618 10 -11 13 -10 14 5 0 21 -12 56
-43 128 -13 28 -33 78 -46 113 -13 34 -29 62 -35 62 -6 0 -11 14 -11 31 0 20
-7 37 -21 48 -14 10 -20 23 -17 36 6 24 -65 197 -82 203 -7 2 -13 -2 -13 -8z"/>
<path d="M2480 2430 c-91 -37 -170 -73 -177 -79 -7 -6 -18 -11 -25 -11 -7 0
-51 -15 -98 -34 -98 -38 -518 -211 -570 -234 -19 -8 -55 -23 -80 -32 -25 -9
-118 -47 -208 -83 -89 -37 -173 -67 -187 -67 -18 0 -23 -4 -19 -15 4 -8 16
-15 28 -15 25 0 229 80 234 92 2 4 10 8 18 8 13 0 494 192 589 235 17 7 149
62 295 121 379 153 375 151 378 168 2 9 0 16 -5 15 -4 0 -82 -31 -173 -69z"/>
<path d="M3716 2468 c5 -7 20 -32 35 -56 l27 -43 -24 -55 c-13 -30 -24 -56
-24 -58 0 -2 27 3 60 11 l59 15 50 -41 49 -41 7 65 7 65 49 27 c27 14 49 29
49 33 0 4 -21 15 -47 25 -27 10 -56 25 -66 33 -15 13 -22 14 -37 4 -11 -7 -33
-12 -49 -12 -17 0 -33 -4 -36 -10 -8 -12 -45 -13 -45 -1 0 5 7 15 17 22 15 13
13 15 -13 20 -51 12 -76 10 -68 -3z"/>
<path d="M2375 2316 c-176 -73 -374 -154 -440 -181 -66 -27 -127 -54 -135 -60
-8 -7 -33 -17 -55 -22 -45 -11 -535 -211 -548 -223 -5 -4 3 -7 18 -7 15 0 31
-5 36 -10 14 -14 0 -43 -22 -43 -10 0 -19 -4 -19 -10 0 -16 9 -13 160 49 l142
59 167 -167 c260 -262 468 -403 811 -555 487 -214 1108 -249 1655 -91 219 63
568 227 593 278 7 15 19 27 26 27 20 0 27 27 10 40 -19 17 -18 30 8 57 40 43
11 34 -75 -21 -203 -133 -542 -270 -783 -316 -60 -11 -121 -23 -136 -26 -17
-3 -28 -13 -31 -27 l-4 -22 -8 22 c-6 19 -12 21 -39 15 -70 -14 -574 -6 -626
11 -8 3 -70 17 -136 31 -251 54 -535 168 -732 293 -29 18 -61 33 -72 33 -11 0
-20 6 -20 13 -1 14 -136 113 -150 110 -6 -2 -10 2 -10 7 0 6 -11 15 -25 20
-14 5 -25 14 -25 20 0 6 -48 56 -106 112 -132 127 -172 177 -154 188 9 6 48
-28 131 -113 82 -86 120 -119 128 -112 8 8 -22 44 -100 124 -106 109 -110 114
-93 132 9 10 24 19 33 19 9 0 127 45 261 101 135 55 266 109 291 119 l45 18
80 -63 c43 -35 117 -86 163 -114 l84 -50 20 25 c15 19 22 22 33 14 7 -7 21
-10 31 -8 12 3 1 13 -37 32 -113 58 -296 187 -283 200 14 13 35 4 93 -39 34
-25 67 -42 75 -38 8 3 15 6 15 7 0 2 -27 22 -60 46 -33 24 -57 47 -53 51 5 4
84 38 176 75 l169 67 -59 19 c-32 10 -67 17 -78 17 -11 0 -164 -60 -340 -133z"/>
<path d="M3116 2388 c-4 -21 -16 -39 -33 -50 l-26 -16 30 -16 c22 -11 34 -26
38 -48 l7 -32 25 28 c19 23 30 27 54 22 33 -6 33 -6 18 27 -7 16 -17 23 -29
20 -10 -3 -21 0 -24 5 -10 17 5 42 24 42 11 0 22 5 26 11 4 8 -3 9 -26 4 -25
-5 -36 -2 -55 15 l-23 21 -6 -33z"/>
<path d="M3515 2389 c-29 -19 -40 -19 -77 -4 -14 5 -18 2 -18 -13 0 -12 -4
-24 -10 -27 -5 -3 -10 -14 -10 -24 0 -9 -14 -30 -30 -46 -27 -26 -29 -30 -13
-37 10 -3 32 -7 49 -7 25 -1 34 -8 54 -43 21 -38 24 -40 37 -23 7 11 13 29 13
41 0 18 7 23 43 29 70 12 74 19 33 51 -35 28 -36 31 -30 77 7 52 3 55 -41 26z"/>
<path d="M5455 2192 c-22 -37 -40 -78 -40 -92 0 -16 -6 -25 -16 -25 -9 0 -49
-42 -88 -92 -91 -118 -232 -266 -335 -351 -45 -37 -89 -74 -99 -83 -10 -9 -22
-43 -28 -77 -7 -41 -16 -62 -25 -62 -15 0 -19 -25 -6 -34 14 -9 233 165 349
278 111 107 241 258 279 322 11 18 31 47 47 66 15 20 50 73 77 118 53 89 53
100 -2 100 -17 0 -33 -8 -40 -20 -15 -23 -33 -27 -25 -5 4 8 3 16 -1 19 -4 2
-25 -26 -47 -62z"/>
<path d="M4652 2173 c3 -5 10 -22 17 -40 7 -18 21 -35 32 -38 27 -9 23 -21
-11 -31 l-29 -9 44 -50 c81 -90 135 -167 135 -190 0 -13 -11 -33 -26 -44 -19
-15 -24 -26 -19 -41 11 -36 -9 -21 -57 43 -26 34 -74 96 -107 137 -34 41 -61
84 -61 97 0 24 21 49 50 58 24 8 34 38 21 63 -10 19 -11 19 -68 1 -65 -22 -99
-50 -119 -96 -16 -38 -18 -89 -4 -98 6 -3 10 -14 10 -23 0 -28 130 -189 192
-238 70 -55 154 -44 238 33 46 40 79 101 80 144 0 34 -46 124 -76 148 -13 10
-24 22 -24 26 0 4 -17 27 -37 53 -53 64 -109 102 -150 102 -19 0 -33 -3 -31
-7z"/>
<path d="M4570 2155 c-16 -9 -19 -14 -9 -15 8 0 24 7 35 15 24 18 7 19 -26 0z"/>
<path d="M2616 2151 c-3 -4 24 -24 59 -42 36 -19 75 -40 88 -46 25 -15 57 -17
57 -5 0 5 -19 17 -42 28 -24 10 -62 31 -84 46 -43 29 -69 35 -78 19z"/>
<path d="M2835 2040 c-10 -15 174 -85 205 -77 8 2 21 -2 27 -8 35 -37 473 -75
473 -42 0 11 -34 15 -147 20 -82 4 -157 9 -168 11 -158 34 -213 49 -284 75
-94 34 -97 35 -106 21z"/>
<path d="M2753 1995 c-58 -14 -61 -21 -16 -43 60 -31 220 -91 251 -94 25 -3
27 0 30 35 3 30 0 37 -15 37 -10 0 -61 17 -113 38 -86 34 -99 36 -137 27z"/>
<path d="M3820 1980 c-36 -10 -104 -24 -152 -31 -59 -9 -88 -17 -88 -26 0 -19
38 -16 170 11 127 26 170 40 170 56 0 13 -21 11 -100 -10z"/>
<path d="M4010 1973 c-101 -39 -217 -71 -323 -88 -101 -16 -311 -21 -429 -9
-48 5 -68 3 -68 -5 0 -6 -4 -11 -10 -11 -5 0 -10 6 -10 14 0 16 -102 42 -120
31 -5 -3 -10 -19 -10 -35 0 -32 9 -37 99 -51 176 -27 236 -31 361 -26 225 10
387 46 597 134 l62 25 -29 24 c-34 29 -38 29 -120 -3z"/>
<path d="M5100 1841 c-69 -71 -157 -155 -197 -187 -64 -51 -80 -74 -53 -74 29
0 360 315 391 372 26 48 -26 7 -141 -111z"/>
<path d="M2620 1883 c-47 -24 -80 -76 -80 -126 0 -39 1 -39 30 -33 18 3 30 1
30 -5 0 -6 -4 -8 -9 -5 -4 3 -16 -1 -27 -8 -17 -13 -16 -18 29 -86 27 -39 52
-83 58 -97 20 -54 -46 -98 -83 -55 -17 20 -21 59 -7 67 21 14 6 33 -44 53 -29
12 -55 22 -58 22 -16 0 -31 -64 -27 -111 4 -40 12 -58 36 -81 l30 -31 16 32
c23 43 37 39 34 -11 l-3 -42 49 -14 c64 -18 113 -5 155 43 33 38 56 105 47
140 -3 12 -25 50 -48 84 -24 34 -51 76 -62 92 -33 53 3 106 55 79 17 -10 20
-19 17 -51 -3 -38 -2 -39 45 -59 58 -25 73 -22 82 19 10 47 -3 91 -31 101 -15
6 -22 15 -18 24 4 10 -10 23 -45 41 -70 35 -127 41 -171 18z"/>
<path d="M1070 1880 c8 -5 20 -10 25 -10 6 0 3 5 -5 10 -8 5 -19 10 -25 10 -5
0 -3 -5 5 -10z"/>
<path d="M3995 1813 c-100 -27 -205 -66 -205 -77 0 -16 139 -454 151 -478 8
-15 18 -14 106 16 66 22 99 38 101 49 4 19 18 23 24 6 6 -19 41 5 73 50 35 51
32 88 -21 251 -48 148 -77 182 -155 186 -30 1 -63 0 -74 -3z m56 -133 c10 -14
33 -76 50 -137 l33 -113 -24 -25 c-46 -49 -58 -35 -112 134 -53 166 -53 174 6
169 17 -2 36 -13 47 -28z"/>
<path d="M3049 1753 c-8 -2 -21 -25 -29 -51 l-13 -47 -6 34 c-5 30 -8 32 -19
18 -36 -43 -82 -294 -69 -367 15 -76 104 -131 210 -132 114 0 159 38 189 159
20 85 34 236 25 274 -9 37 -63 86 -113 103 -39 13 -46 13 -51 1 -3 -8 -10 -15
-15 -15 -6 0 -8 7 -4 15 4 12 -4 15 -42 14 -26 -1 -54 -3 -63 -6z m132 -103
c24 -13 25 -55 3 -188 -20 -129 -29 -146 -77 -150 -57 -5 -64 20 -42 160 22
145 39 188 72 188 13 0 33 -5 44 -10z"/>
<path d="M3491 1721 l-55 -6 3 -57 c1 -32 9 -133 17 -225 8 -93 14 -185 14
-207 l-1 -38 103 7 c57 4 106 9 111 12 12 7 8 23 -7 23 -9 0 -17 15 -21 40 -6
33 -10 39 -28 37 -20 -2 -23 4 -30 83 -9 94 -14 167 -17 250 -1 30 -4 49 -7
43 -10 -26 -25 -13 -19 17 3 17 2 29 -2 28 -4 -1 -32 -4 -61 -7z"/>
<path d="M1920 1681 c0 -5 7 -14 15 -21 13 -10 15 -9 15 9 0 12 -6 21 -15 21
-8 0 -15 -4 -15 -9z"/>
<path d="M1975 1651 c-5 -8 2 -23 19 -39 20 -20 26 -23 26 -10 0 25 -35 64
-45 49z"/>
<path d="M2035 1591 c-8 -14 104 -91 133 -91 30 0 30 0 -49 56 -66 46 -74 50
-84 35z"/>
<path d="M4710 1516 c-229 -154 -524 -276 -812 -337 -32 -7 -58 -15 -58 -18 0
-3 -21 -6 -47 -7 -27 0 -79 -5 -118 -9 -197 -24 -521 -4 -734 46 -57 13 -88
16 -95 9 -5 -5 -8 -12 -5 -14 9 -9 241 -56 334 -67 146 -17 427 -15 570 5 130
18 353 69 388 88 12 6 29 12 37 13 111 10 650 293 650 340 0 8 -3 15 -7 15 -5
-1 -51 -29 -103 -64z"/>
<path d="M2200 1478 c0 -16 88 -73 97 -64 8 8 -32 47 -64 65 -28 14 -33 14
-33 -1z"/>
<path d="M2314 1418 c-11 -18 18 -37 144 -93 157 -71 319 -128 340 -120 23 9
5 20 -73 45 -93 31 -261 101 -341 143 -35 19 -67 31 -70 25z"/>
<path d="M3723 1312 c-48 -4 -50 -9 -25 -63 14 -33 22 -39 50 -39 32 0 32 0
32 49 0 28 -3 51 -7 53 -5 2 -27 2 -50 0z"/>
</g>
</svg>
